<svg width="36" height="28" viewBox="0 0 36 28" fill="none" xmlns="http://www.w3.org/2000/svg">
<path d="M35.2706 21.9297C35.5629 22.112 35.6907 22.3854 35.6542 22.75C35.6177 23.0417 35.4533 23.2604 35.161 23.4062L32.1469 24.5V27.125C32.1469 27.3802 32.0647 27.5898 31.9003 27.7539C31.7359 27.918 31.5258 28 31.2701 28H29.5164C29.2607 28 29.0506 27.918 28.8862 27.7539C28.7218 27.5898 28.6396 27.3802 28.6396 27.125V24.5H19.8714V27.125C19.8714 27.3802 19.7892 27.5898 19.6248 27.7539C19.4604 27.918 19.2503 28 18.9946 28H17.2409C16.9852 28 16.7751 27.918 16.6107 27.7539C16.4463 27.5898 16.3641 27.3802 16.3641 27.125V24.5H7.59587V27.125C7.59587 27.3802 7.51367 27.5898 7.34926 27.7539C7.18486 27.918 6.97478 28 6.71904 28H4.9654C4.70966 28 4.49959 27.918 4.33518 27.7539C4.17078 27.5898 4.08858 27.3802 4.08858 27.125V24.5L1.0745 23.4062C0.782223 23.2604 0.617819 23.0417 0.581284 22.75C0.54475 22.3854 0.67262 22.112 0.964894 21.9297L5.84222 19.25V15.75L2.82814 14.7656C2.49933 14.6198 2.33493 14.3646 2.33493 14C2.33493 13.6354 2.49933 13.3802 2.82814 13.2344L9.34951 10.5V7L7.86987 6.125C7.65067 5.90625 7.56847 5.65104 7.62327 5.35938C7.67807 5.06771 7.83334 4.84896 8.08908 4.70312L18.1177 0L28.1464 4.70312C28.4021 4.84896 28.5574 5.06771 28.6122 5.35938C28.667 5.65104 28.5848 5.90625 28.3656 6.125L26.886 7V10.5L33.4073 13.2344C33.7361 13.3802 33.9006 13.6354 33.9006 14C33.9006 14.3646 33.7361 14.6198 33.4073 14.7656L30.3933 15.75V19.25L35.2706 21.9297ZM12.8568 7V10.5H23.3787V7H12.8568ZM9.34951 19.25H26.886V15.75H9.34951V19.25Z" fill="#FF5900"/>
</svg>
