<svg width="36" height="35" viewBox="0 0 36 35" fill="none" xmlns="http://www.w3.org/2000/svg">
<g filter="url(#filter0_i_482_130358)">
<g clip-path="url(#clip0_482_130358)">
<path d="M23.6875 11.75C24.0521 11.75 24.362 11.8776 24.6172 12.1328C24.8724 12.388 25 12.6979 25 13.0625V20.9375C25 21.3021 24.8724 21.612 24.6172 21.8672C24.362 22.1224 24.0521 22.25 23.6875 22.25H12.3125C11.9479 22.25 11.638 22.1224 11.3828 21.8672C11.1276 21.612 11 21.3021 11 20.9375V13.0625C11 12.6979 11.1276 12.388 11.3828 12.1328C11.638 11.8776 11.9479 11.75 12.3125 11.75H23.6875ZM23.6875 13.0625H12.3125V14.1836C12.9505 14.694 14.181 15.6602 16.0039 17.082C16.0039 17.1003 16.1315 17.2142 16.3867 17.4238C16.6419 17.6335 16.8333 17.7793 16.9609 17.8613C17.0885 17.9434 17.2572 18.0391 17.4668 18.1484C17.6764 18.2578 17.8542 18.3125 18 18.3125C18.1458 18.3125 18.3236 18.2578 18.5332 18.1484C18.7428 18.0391 18.9115 17.9434 19.0391 17.8613C19.1667 17.7793 19.3581 17.6335 19.6133 17.4238C19.8685 17.2142 19.9961 17.1003 19.9961 17.082C21.819 15.6602 23.0495 14.694 23.6875 14.1836V13.0625ZM12.3125 20.9375H23.6875V15.8516C23.0495 16.362 22.0924 17.1185 20.8164 18.1211C20.7799 18.1393 20.6478 18.2487 20.4199 18.4492C20.1921 18.6497 20.0143 18.7956 19.8867 18.8867C19.7591 18.9779 19.5768 19.0918 19.3398 19.2285C19.1029 19.3652 18.875 19.4655 18.6562 19.5293C18.4375 19.5931 18.2188 19.625 18 19.625C17.7812 19.625 17.5579 19.5931 17.3301 19.5293C17.1022 19.4655 16.8743 19.3607 16.6465 19.2148C16.4186 19.069 16.2409 18.9505 16.1133 18.8594C15.9857 18.7682 15.8079 18.627 15.5801 18.4355C15.3522 18.2441 15.2201 18.1393 15.1836 18.1211C13.9076 17.1185 12.9505 16.362 12.3125 15.8516V20.9375Z" fill="#EBEBEB"/>
</g>
<rect x="1" y="0.5" width="34" height="34" rx="17" stroke="#FFEEE5"/>
</g>
<defs>
<filter id="filter0_i_482_130358" x="0.5" y="0" width="35" height="35" filterUnits="userSpaceOnUse" color-interpolation-filters="sRGB">
<feFlood flood-opacity="0" result="BackgroundImageFix"/>
<feBlend mode="normal" in="SourceGraphic" in2="BackgroundImageFix" result="shape"/>
<feColorMatrix in="SourceAlpha" type="matrix" values="0 0 0 0 0 0 0 0 0 0 0 0 0 0 0 0 0 0 127 0" result="hardAlpha"/>
<feMorphology radius="2" operator="erode" in="SourceAlpha" result="effect1_innerShadow_482_130358"/>
<feOffset/>
<feComposite in2="hardAlpha" operator="arithmetic" k2="-1" k3="1"/>
<feColorMatrix type="matrix" values="0 0 0 0 0.886275 0 0 0 0 0.886275 0 0 0 0 0.886275 0 0 0 1 0"/>
<feBlend mode="normal" in2="shape" result="effect1_innerShadow_482_130358"/>
</filter>
<clipPath id="clip0_482_130358">
<rect x="0.5" width="35" height="35" rx="17.5" fill="white"/>
</clipPath>
</defs>
</svg>
