<svg width="32" height="29" viewBox="0 0 32 29" fill="none" xmlns="http://www.w3.org/2000/svg">
<g clip-path="url(#clip0_482_4182)">
<path d="M15.0391 14.1719L9.07812 7.9375C8.23958 7.0625 7.84766 5.96875 7.90234 4.65625C7.95703 3.34375 8.45833 2.28646 9.40625 1.48438C10.2448 0.755209 11.2201 0.436197 12.332 0.527344C13.444 0.61849 14.3828 1.0651 15.1484 1.86719L15.75 2.52344L16.3516 1.86719C17.1536 1.0651 18.1016 0.61849 19.1953 0.527344C20.2891 0.436197 21.2552 0.755209 22.0938 1.48438C23.0781 2.28646 23.5977 3.34375 23.6523 4.65625C23.707 5.96875 23.2969 7.0625 22.4219 7.9375L16.4609 14.1719C16.2422 14.3906 16.0052 14.5 15.75 14.5C15.4948 14.5 15.2578 14.3906 15.0391 14.1719ZM30.8984 18.4375C31.3359 18.8021 31.5456 19.2578 31.5273 19.8047C31.5091 20.3516 31.2812 20.7891 30.8438 21.1172L22.5859 27.7344C21.9297 28.2448 21.2005 28.5 20.3984 28.5H0.875C0.619792 28.5 0.410156 28.418 0.246094 28.2539C0.0820312 28.0898 0 27.8802 0 27.625V22.375C0 22.1198 0.0820312 21.9102 0.246094 21.7461C0.410156 21.582 0.619792 21.5 0.875 21.5H3.88281L6.45312 19.4219C7.61979 18.474 8.96875 18 10.5 18H19.25C19.7969 18 20.2435 18.2096 20.5898 18.6289C20.9362 19.0482 21.0729 19.513 21 20.0234C20.9271 20.4609 20.7083 20.8164 20.3438 21.0898C19.9792 21.3633 19.5781 21.5 19.1406 21.5H14.875C14.6198 21.5 14.4102 21.582 14.2461 21.7461C14.082 21.9102 14 22.1198 14 22.375C14 22.6302 14.082 22.8398 14.2461 23.0039C14.4102 23.168 14.6198 23.25 14.875 23.25H21.3281C22.1667 23.25 22.8958 22.9948 23.5156 22.4844L28.6016 18.4375C28.9297 18.1458 29.3125 18 29.75 18C30.1875 18 30.5703 18.1458 30.8984 18.4375Z" fill="#FF5900"/>
</g>
<defs>
<clipPath id="clip0_482_4182">
<rect width="31.5" height="29" fill="white" transform="matrix(1 0 0 -1 0 29)"/>
</clipPath>
</defs>
</svg>
