<svg width="36" height="36" viewBox="0 0 36 36" fill="none" xmlns="http://www.w3.org/2000/svg">
<g filter="url(#filter0_i_482_130345)">
<rect x="0.890625" y="1.30078" width="34" height="34" rx="17" stroke="#FFEEE5"/>
<path d="M17.8955 14.5668C19.7904 14.5668 21.3545 16.1309 21.3545 18.0258C21.3545 19.9508 19.7904 21.4848 17.8955 21.4848C15.9705 21.4848 14.4365 19.9508 14.4365 18.0258C14.4365 16.1309 15.9705 14.5668 17.8955 14.5668ZM17.8955 20.2816C19.1287 20.2816 20.1213 19.2891 20.1213 18.0258C20.1213 16.7926 19.1287 15.8 17.8955 15.8C16.6322 15.8 15.6396 16.7926 15.6396 18.0258C15.6396 19.2891 16.6623 20.2816 17.8955 20.2816ZM22.2869 14.4465C22.2869 14.8977 21.926 15.2586 21.4748 15.2586C21.0236 15.2586 20.6627 14.8977 20.6627 14.4465C20.6627 13.9953 21.0236 13.6344 21.4748 13.6344C21.926 13.6344 22.2869 13.9953 22.2869 14.4465ZM24.5729 15.2586C24.633 16.3715 24.633 19.7102 24.5729 20.823C24.5127 21.9059 24.2721 22.8383 23.49 23.6504C22.708 24.4324 21.7455 24.673 20.6627 24.7332C19.5498 24.7934 16.2111 24.7934 15.0982 24.7332C14.0154 24.673 13.083 24.4324 12.2709 23.6504C11.4889 22.8383 11.2482 21.9059 11.1881 20.823C11.1279 19.7102 11.1279 16.3715 11.1881 15.2586C11.2482 14.1758 11.4889 13.2133 12.2709 12.4313C13.083 11.6492 14.0154 11.4086 15.0982 11.3484C16.2111 11.2883 19.5498 11.2883 20.6627 11.3484C21.7455 11.4086 22.708 11.6492 23.49 12.4313C24.2721 13.2133 24.5127 14.1758 24.5729 15.2586ZM23.1291 21.9961C23.49 21.1238 23.3998 19.0184 23.3998 18.0258C23.3998 17.0633 23.49 14.9578 23.1291 14.0555C22.8885 13.484 22.4373 13.0027 21.8658 12.7922C20.9635 12.4313 18.858 12.5215 17.8955 12.5215C16.9029 12.5215 14.7975 12.4313 13.9252 12.7922C13.3236 13.0328 12.8725 13.484 12.6318 14.0555C12.2709 14.9578 12.3611 17.0633 12.3611 18.0258C12.3611 19.0184 12.2709 21.1238 12.6318 21.9961C12.8725 22.5977 13.3236 23.0488 13.9252 23.2895C14.7975 23.6504 16.9029 23.5602 17.8955 23.5602C18.858 23.5602 20.9635 23.6504 21.8658 23.2895C22.4373 23.0488 22.9186 22.5977 23.1291 21.9961Z" fill="#EBEBEB"/>
</g>
<defs>
<filter id="filter0_i_482_130345" x="0.390625" y="0.800781" width="35" height="35" filterUnits="userSpaceOnUse" color-interpolation-filters="sRGB">
<feFlood flood-opacity="0" result="BackgroundImageFix"/>
<feBlend mode="normal" in="SourceGraphic" in2="BackgroundImageFix" result="shape"/>
<feColorMatrix in="SourceAlpha" type="matrix" values="0 0 0 0 0 0 0 0 0 0 0 0 0 0 0 0 0 0 127 0" result="hardAlpha"/>
<feMorphology radius="2" operator="erode" in="SourceAlpha" result="effect1_innerShadow_482_130345"/>
<feOffset/>
<feComposite in2="hardAlpha" operator="arithmetic" k2="-1" k3="1"/>
<feColorMatrix type="matrix" values="0 0 0 0 0.886275 0 0 0 0 0.886275 0 0 0 0 0.886275 0 0 0 1 0"/>
<feBlend mode="normal" in2="shape" result="effect1_innerShadow_482_130345"/>
</filter>
</defs>
</svg>
