<svg width="36" height="35" viewBox="0 0 36 35" fill="none" xmlns="http://www.w3.org/2000/svg">
<g filter="url(#filter0_i_482_130364)">
<rect x="1.19141" y="0.5" width="34" height="34" rx="17" stroke="#FFEEE5"/>
<path d="M23.4365 11.625C23.9014 11.625 24.3115 12.0352 24.3115 12.5273V23C24.3115 23.4922 23.9014 23.875 23.4365 23.875H12.9092C12.4443 23.875 12.0615 23.4922 12.0615 23V12.5273C12.0615 12.0352 12.4443 11.625 12.9092 11.625H23.4365ZM15.7529 22.125V16.3008H13.9482V22.125H15.7529ZM14.8506 15.4805C15.4248 15.4805 15.8896 15.0156 15.8896 14.4414C15.8896 13.8672 15.4248 13.375 14.8506 13.375C14.249 13.375 13.7842 13.8672 13.7842 14.4414C13.7842 15.0156 14.249 15.4805 14.8506 15.4805ZM22.5615 22.125V18.9258C22.5615 17.3672 22.2061 16.1367 20.374 16.1367C19.499 16.1367 18.8975 16.6289 18.6514 17.0938H18.624V16.3008H16.9014V22.125H18.7061V19.2539C18.7061 18.4883 18.8428 17.75 19.7998 17.75C20.7295 17.75 20.7295 18.625 20.7295 19.2812V22.125H22.5615Z" fill="#EBEBEB"/>
</g>
<defs>
<filter id="filter0_i_482_130364" x="0.691406" y="0" width="35" height="35" filterUnits="userSpaceOnUse" color-interpolation-filters="sRGB">
<feFlood flood-opacity="0" result="BackgroundImageFix"/>
<feBlend mode="normal" in="SourceGraphic" in2="BackgroundImageFix" result="shape"/>
<feColorMatrix in="SourceAlpha" type="matrix" values="0 0 0 0 0 0 0 0 0 0 0 0 0 0 0 0 0 0 127 0" result="hardAlpha"/>
<feMorphology radius="2" operator="erode" in="SourceAlpha" result="effect1_innerShadow_482_130364"/>
<feOffset/>
<feComposite in2="hardAlpha" operator="arithmetic" k2="-1" k3="1"/>
<feColorMatrix type="matrix" values="0 0 0 0 0.886275 0 0 0 0 0.886275 0 0 0 0 0.886275 0 0 0 1 0"/>
<feBlend mode="normal" in2="shape" result="effect1_innerShadow_482_130364"/>
</filter>
</defs>
</svg>
