<svg width="113" height="113" viewBox="0 0 113 113" fill="none" xmlns="http://www.w3.org/2000/svg">
<g clip-path="url(#clip0_955_12973)">
<path d="M36.4237 64.7914C35.3306 67.3797 35.6117 67.5641 34.962 68.4793C34.075 69.7359 33.3442 69.6812 33.0256 70.8491C32.9569 71.1018 32.9881 71.1154 32.807 72.6589C32.6071 74.4209 32.5758 74.3184 32.5883 74.4687C32.7258 75.9507 34.6872 76.9341 36.8297 77.979C39.0847 79.0786 38.9473 78.6142 39.7219 79.2083C42.0081 80.9772 41.1524 83.4836 43.3511 84.8973C43.4761 84.9792 43.4761 84.9656 46.3932 86.0651C46.3932 86.0651 48.3234 86.4749 48.2047 86.1402C48.1173 85.8807 46.7805 84.9929 46.0059 84.5148C44.9752 83.8797 45.4437 82.5684 45.4437 82.4113C45.4562 81.5235 45.6061 80.9908 45.6061 80.9908L45.3001 79.6659C45.3001 79.6659 44.488 79.0444 44.4693 78.3273C44.463 77.9654 44.007 77.9176 44.4006 77.1868C44.488 77.0297 44.969 76.1487 44.6754 75.5409C44.438 75.0355 43.9071 75.2336 43.5011 74.7146C42.9826 74.0453 43.9258 74.1272 43.982 73.8882C44.2756 72.6452 45.4375 74.5985 45.7685 73.3555C45.831 73.1165 48.4108 72.6452 48.0423 71.7574C47.5426 70.5622 48.7357 68.3632 48.3671 67.3183C48.186 66.806 49.0917 64.8392 49.504 63.4118C50.0162 61.6293 43.9571 61.1786 43.7322 60.8644C43.5198 60.5708 43.0263 60.7347 40.9275 61.3152C38.4226 62.0118 38.0416 62.0801 37.5481 62.5854C37.217 62.9269 36.9484 63.5552 36.4237 64.7914Z" fill="#FF5900"/>
<path d="M61.2353 52.3207C60.5544 53.1675 59.8548 52.6212 58.4805 53.6251C57.9746 53.9939 57.0501 54.6768 56.8439 55.7764C56.7003 56.5481 57.0563 56.7325 57.225 58.4535C57.3187 59.4233 57.2812 60.1814 57.2625 60.475C57.1813 61.7863 56.9439 61.9775 56.8689 62.9609C56.819 63.5961 58.7117 63.1453 59.4175 64.3678C60.1921 65.7132 60.5669 66.0069 61.0291 66.1298C62.7844 65.8771 62.7657 67.1679 63.3903 66.56C63.8526 66.1025 64.3148 65.4673 65.1581 65.2966C65.7078 65.1873 65.7828 65.399 66.6198 65.399C67.8691 65.399 67.8379 65.6176 68.7311 65.7405C68.931 65.7678 69.6619 66.4166 70.1616 67.3045C70.4739 67.8576 70.9736 67.2498 70.9112 68.2333C70.8237 69.5172 70.5489 69.5513 70.6488 70.207C70.7488 70.9104 71.0798 70.9719 72.0605 72.5153C72.8164 73.7036 73.2661 77.2003 73.566 77.2891C74.4467 77.5486 75.4337 75.4656 76.7892 74.3524C77.5075 73.7651 77.7761 71.7572 78.0447 71.2245C79.1191 69.0733 78.5007 68.3698 78.7631 67.8986C79.1254 67.243 79.4252 64.5249 79.6563 63.5961C79.7938 63.0429 78.2946 64.9893 79.0067 64.2312C80.0561 63.118 80.3435 63.2751 80.5559 62.7356C80.9556 61.7248 81.9301 62.0048 82.155 60.6662C82.2674 60.0174 81.2492 60.1814 82.3361 58.713C83.5667 57.0466 83.8165 54.6017 83.5479 54.1578C83.2918 53.7344 82.155 54.4105 80.9057 53.0378C80.7807 52.9012 79.8 52.5119 78.7568 51.2758C78.1134 50.5177 77.5513 51.5216 76.6018 49.145C75.8897 47.3693 75.5274 46.4747 74.9777 46.1332C74.5966 45.8942 74.1969 45.7234 71.4546 46.3108C69.2683 46.7752 69.6181 47.6425 67.8379 47.9498C65.9764 48.2708 65.2393 47.3762 64.1899 47.8337C63.2467 48.2435 62.6345 48.503 62.166 49.186C61.329 50.4016 62.0286 51.3646 61.254 52.3275L61.2353 52.3207Z" fill="#FF5900"/>
<path d="M81.6048 63.773C81.2425 64.2579 81.1238 64.7906 81.0051 65.296C80.8552 65.9448 80.8615 66.4365 80.8677 67.0375C80.8802 68.0892 80.8927 68.8746 81.1988 68.9975C81.355 69.059 81.6423 68.9634 82.4981 67.8024C83.7474 66.095 84.4283 65.1662 84.6656 63.6979C84.9655 61.8266 84.372 60.1261 84.1409 60.1397C83.9223 60.1534 83.585 61.0754 82.6855 62.0178C82.092 62.6393 82.1857 63.0013 81.6111 63.7662L81.6048 63.773Z" fill="#FF5900"/>
<path d="M26.6659 42.4583C26.4847 44.0701 27.3655 43.2915 26.4847 47.6692C26.3598 48.2838 25.1167 50.2848 25.5103 52.641C25.6352 53.4127 25.7726 53.3239 26.8033 55.9601C27.6716 58.1865 28.1026 59.3065 28.2588 60.2422C28.5586 62.0929 28.2962 63.2813 28.8147 63.5135C29.3019 63.732 29.6767 62.7554 30.5075 62.7691C31.5882 62.7895 31.7631 64.4491 33.3185 65.3847C34.7052 66.2179 36.4355 66.0267 36.6166 65.5145C36.7978 64.9886 35.2611 64.3603 35.3111 63.1925C35.3486 62.3661 36.1419 62.2637 36.5979 61.1368C37.2163 59.6343 36.2668 58.6919 36.7791 57.9133C37.4599 56.8889 45.0308 58.7192 42.4134 56.9299C40.983 55.9533 45.2619 56.7865 47.0671 55.7552C49.547 54.3415 50.3403 53.4674 51.1836 54.3825C52.0769 55.3591 52.0894 53.0849 52.6141 51.4458C53.6885 48.1199 57.2677 48.318 56.3745 46.556C53.4698 40.8397 53.6135 41.9871 53.5323 40.7783C53.3949 38.6885 52.5266 35.2259 50.9025 34.9459C49.7906 34.7547 47.7792 33.2522 45.8116 34.0308C45.418 34.1879 44.9058 34.1127 44.0251 34.8162C43.0256 35.6152 43.1568 35.2942 42.1636 34.9254C40.7269 34.3927 38.3157 35.4991 37.5849 35.7928C35.7671 36.5235 34.8301 35.5264 33.6495 35.7928C31.5882 36.2572 32.7001 35.2396 30.8573 35.8269C29.8704 36.1411 28.9084 37.1928 28.8959 38.2172C28.8709 39.9792 26.8533 40.8397 26.6721 42.4447L26.6659 42.4583Z" fill="#FF5900"/>
<path d="M38.2155 33.1436C37.6158 33.1709 37.8657 32.8978 37.5784 32.727C37.2161 32.5085 37.0287 32.8704 36.7725 32.7953C36.4852 32.7134 36.1979 32.3992 35.4358 32.8773C34.9048 33.2051 35.0048 33.2939 34.7174 33.6627C34.4176 34.0451 34.3926 34.2705 34.6112 34.4685C34.7549 34.5983 35.6107 33.8061 35.973 33.6763C36.6913 33.4168 36.4602 33.6763 36.7725 33.6763C37.4159 33.6627 37.3847 34.1134 37.8157 34.0246C38.1468 33.9563 38.0156 34.4276 38.5528 33.8197C39.1337 33.1641 39.9208 33.2324 39.9146 33.007C39.9083 32.809 38.8027 33.1231 38.2155 33.1504V33.1436Z" fill="#FF5900"/>
<path d="M37.1969 34.284C36.6971 34.3659 37.0469 34.2362 36.8283 34.1542C36.5472 34.0518 36.6159 33.9152 36.4098 33.8947C36.1787 33.8742 36.0662 34.1337 35.3854 34.523C34.9169 34.7962 34.7107 34.721 34.4421 34.9874C34.161 35.2674 34.5546 35.1786 34.7232 35.2811C34.8294 35.3494 35.1168 35.4723 35.4228 35.3494C36.035 35.1035 35.7851 35.5816 36.0413 35.5406C36.5722 35.4586 36.4223 35.8138 36.7846 35.7045C37.0594 35.6225 37.0282 35.1923 37.5217 34.7415C38.0589 34.2498 37.4342 34.5367 37.5717 34.5367C37.9714 34.5367 37.6778 34.1952 37.1906 34.2771L37.1969 34.284Z" fill="#FF5900"/>
<path d="M65.1384 37.5689C65.2883 37.6577 65.4507 37.5006 65.2196 39.1328C65.1259 39.7953 64.7948 39.7065 64.6074 39.9182C64.0702 40.5056 63.533 40.7036 63.7142 41.0929C63.7954 41.2773 64.2701 42.172 64.9697 42.2676C65.5007 42.3427 64.9697 42.4656 65.3258 42.8549L65.5069 43.4422C65.5069 43.6403 65.3258 43.8315 65.3258 44.4188C65.3258 45.3613 65.9004 45.4159 66.219 45.5935C66.4064 45.6959 66.7 46.2218 66.9311 46.1399C67.1498 46.0647 67.3372 45.9145 67.4621 45.7028L67.8306 45.7847C68.0118 45.5867 67.8306 45.7847 68.7239 45.7847C69.1674 45.7847 69.7983 46.9594 70.1419 44.5145C70.273 43.5856 71.2725 43.6471 71.5848 43.4422C72.3094 42.971 72.7092 42.9983 72.8279 43.053C73.9085 43.5515 73.7086 44.4803 74.9142 45.334C75.7887 45.9555 76.151 45.6481 76.7007 46.3106C77.2567 46.9799 77.0131 47.4579 77.594 48.1067C78.2686 48.858 78.9307 49.5068 79.0994 49.5136C79.7178 49.5409 80.4237 49.7868 81.4231 49.5136C82.4538 49.2268 82.0852 48.537 83.0347 48.537C85.1835 48.537 85.9331 50.1078 85.5396 47.1643C85.4272 46.3447 86.2954 46.3379 85.5396 43.8383C84.5964 40.7446 84.2591 39.5085 83.7531 38.7504C83.2409 37.9855 83.5719 38.3611 82.966 37.0226C81.9041 34.6937 80.6673 34.762 79.0869 33.4371C77.1755 31.8322 75.2953 31.238 74.0147 30.8282C72.4093 30.316 69.4797 29.3872 66.2627 30.3365C64.9885 30.7121 65.0884 30.9648 62.3836 31.9688C61.7402 32.2078 60.8532 32.5151 59.8475 33.2732C59.073 33.8537 58.4795 34.3113 58.3546 35.0693C58.2172 35.9367 58.8668 36.1894 58.8044 37.3504C58.7544 38.2519 57.8174 37.6987 57.9798 38.3611C58.1048 38.8802 59.0605 40.246 59.5477 40.287C60.1286 40.328 60.291 41.5505 61.1968 41.2978C61.7527 41.1475 61.7777 39.4197 62.3774 39.3104C63.127 39.167 63.4331 38.245 64.4637 37.8421C65.1321 37.5826 64.9947 37.5006 65.1321 37.5826L65.1384 37.5689Z" fill="#FF5900"/>
<path d="M44.5876 59.3818C44.7875 59.4911 44.6563 59.8599 44.9374 60.0921C45.2123 60.3175 45.4122 60.0375 45.8182 60.2765C46.0431 60.4063 46.3679 60.7204 46.4054 60.9663C46.4054 60.9731 46.4054 60.9936 46.4179 61.0004C46.5053 61.0824 46.8676 60.618 47.4673 60.2219C47.942 59.9077 48.0732 59.9692 48.2481 59.7096C48.2668 59.6823 48.5479 59.2521 48.4168 58.7467C48.3106 58.3438 47.9982 58.1389 47.8171 58.0228C47.2924 57.6881 47.0675 57.9135 46.5678 57.6813C45.8557 57.3467 45.9556 56.7183 45.3497 56.5066C44.9437 56.37 45.1873 56.9915 44.5564 57.2989C44.0754 57.5311 43.7693 57.5447 43.3758 58.2072C43.2071 58.5008 42.6699 58.7057 42.8198 59.2862C42.9011 59.6072 42.52 60.1809 42.901 60.2628C43.5944 60.3994 44.2066 59.1701 44.5876 59.3818Z" fill="#FF5900"/>
<path d="M40.8095 58.624C40.1661 59.2181 39.835 59.8055 39.9849 60.0855C40.0849 60.2835 40.4409 60.3655 40.6845 60.2494C40.9406 60.1265 40.8782 59.8874 41.1593 59.6143C41.5028 59.2864 41.7652 59.4777 42.0463 59.1635C42.2524 58.9313 42.4023 58.5079 42.2462 58.303C42.1212 58.1459 41.8152 58.1391 41.5216 58.303" fill="#FF5900"/>
<path d="M62.1532 40.8951C61.5848 41.3868 61.6035 41.5848 61.2475 41.7556C60.8414 41.9605 60.6603 41.7624 60.3792 42.0014C60.1418 42.1995 60.0044 42.5615 60.0356 42.9029C60.0919 43.4493 60.5916 43.8249 60.9976 43.8454C61.3849 43.859 61.4349 43.5381 61.9908 43.3605C62.6717 43.142 63.084 43.4561 63.2464 43.2102C63.3775 43.0054 63.1214 42.7663 62.9778 42.0766C62.7904 41.1819 63.009 40.6219 62.7904 40.5126C62.6654 40.4512 62.4905 40.6014 62.1407 40.8951H62.1532Z" fill="#FF5900"/>
<path d="M7.48337 69.2368C7.05236 67.789 6.65882 66.2933 6.31526 64.7636C4.57248 65.1597 2.83593 65.5626 1.09315 65.9587C0.662134 64.0328 0.293588 62.0386 0 59.9966C4.27889 59.4912 8.56402 58.979 12.8429 58.4736C13.074 60.0581 13.3551 61.5947 13.6924 63.0835C12.1308 63.4386 10.5692 63.8006 9.00753 64.1557C9.33235 65.6104 9.70089 67.0173 10.1132 68.39C11.6373 67.8914 13.1615 67.3997 14.6919 66.9012C15.1167 68.3149 15.5851 69.6876 16.1036 71.0057C12.1433 72.7403 8.17674 74.4818 4.21642 76.2165C3.54804 74.5023 2.93588 72.7335 2.39243 70.8964C4.09149 70.3432 5.7968 69.79 7.49586 69.2368H7.48337Z" fill="#006AA3"/>
<path d="M9.32578 86.9326C6.27122 82.07 7.33313 76.7567 10.8437 75.2132C14.3667 73.6356 18.1584 75.4932 20.4009 79.0309C22.6559 82.6095 22.6184 86.7618 19.8887 89.6165C17.1839 92.4439 12.4241 91.8088 9.32578 86.9326ZM19.7762 75.1518C20.0011 75.0152 20.226 74.8854 20.4509 74.7488C20.8819 75.5684 21.3316 76.3606 21.8001 77.1323C21.5815 77.2826 21.3691 77.426 21.1505 77.5762C20.6758 76.7908 20.2135 75.985 19.7762 75.1518ZM12.1617 84.9111C13.5172 87.0487 15.6285 87.4516 17.084 86.2155C18.5457 84.9657 18.7393 82.8895 17.5775 81.0524C16.4281 79.229 14.5229 78.587 12.8801 79.5431C11.2435 80.4924 10.8312 82.7871 12.168 84.9111H12.1617ZM21.975 78.8875C22.1874 78.7304 22.3998 78.5733 22.6059 78.4162C23.0932 79.1538 23.5991 79.8778 24.1176 80.5675C23.9177 80.7383 23.7116 80.909 23.5117 81.0797C22.9807 80.3695 22.4685 79.6387 21.9688 78.8875H21.975Z" fill="#006AA3"/>
<path d="M15.4789 94.6492C16.1973 93.9253 16.9156 93.2014 17.6277 92.4774C18.0025 92.894 18.3835 93.3038 18.7708 93.6999C19.5766 94.5331 20.345 94.5263 21.0196 93.7545C22.9248 91.5828 24.83 89.411 26.7289 87.2393C27.6097 88.0998 28.5279 88.9056 29.4649 89.6774C27.6284 92.1496 25.7857 94.6287 23.9492 97.101C22.3813 99.2591 20.0951 99.3069 17.6465 96.9166C16.9031 96.1858 16.1785 95.4278 15.4727 94.6424L15.4789 94.6492Z" fill="#006AA3"/>
<path d="M22.8305 101.425C23.4176 100.585 23.9986 99.7516 24.5857 98.9116C26.1599 100.12 27.7965 101.227 29.4706 102.231C30.5824 102.893 31.307 102.558 31.5881 102.005C31.8755 101.438 31.8005 100.721 30.6761 100.059C30.3513 99.8609 30.0265 99.6628 29.7079 99.4648C27.3217 97.9555 26.7596 95.4627 28.1088 93.5914C29.4706 91.7133 31.6569 91.4265 33.6682 92.6968C35.2299 93.6802 36.8415 94.5476 38.4968 95.3125C38.0908 96.2549 37.6848 97.2042 37.285 98.1467C35.7921 97.4637 34.3304 96.692 32.9062 95.8383C32.2628 95.4491 31.7381 95.572 31.457 96.0569C31.2009 96.4871 31.3445 97.0471 32.0129 97.4501C32.294 97.6208 32.5751 97.7847 32.8562 97.9486C35.5235 99.4579 36.3855 101.8 35.4985 104.02C34.6177 106.24 32.0504 107.25 28.8584 105.447C26.7783 104.259 24.7607 102.92 22.8242 101.438L22.8305 101.425Z" fill="#006AA3"/>
<path d="M42.1696 105.085C41.7823 104.969 41.395 104.853 41.0139 104.73C40.4767 106.512 39.9395 108.302 39.4023 110.084C37.9656 109.627 36.5477 109.101 35.1484 108.527C36.7663 104.341 38.3841 100.154 40.002 95.9678C41.0827 96.4185 42.182 96.8146 43.2877 97.1698C42.8067 98.7678 42.3257 100.373 41.8447 101.971C42.1508 102.066 42.4569 102.162 42.763 102.258C44.031 100.892 45.2304 99.4781 46.3485 98.0234C47.5791 98.3171 48.8221 98.563 50.0652 98.7474C48.8159 100.646 47.4354 102.497 45.9362 104.279C46.6358 106.929 47.5166 109.565 48.5723 112.181C46.8982 111.942 45.2366 111.628 43.5875 111.238C43.0191 109.19 42.5443 107.127 42.1696 105.078V105.085Z" fill="#006AA3"/>
<path d="M56.033 113C50.9733 112.945 47.9312 109.264 48.6308 105.33C49.3242 101.376 52.4474 98.9514 56.1454 98.9787C59.8746 99.0129 62.9666 101.485 63.5913 105.446C64.2284 109.394 61.1301 113.027 56.033 113ZM56.0642 109.407C58.2942 109.421 59.7184 107.843 59.581 105.89C59.4436 103.93 58.0318 102.571 56.1142 102.557C54.2152 102.544 52.7973 103.869 52.6348 105.836C52.4724 107.789 53.8467 109.387 56.0642 109.407Z" fill="#006AA3"/>
<path d="M73.5783 110.084C71.1296 110.869 68.6372 111.477 66.1199 111.914C65.389 107.468 64.6644 103.029 63.9336 98.5833C65.0767 98.3852 66.2073 98.1394 67.338 97.8525C68.1563 101.226 68.9808 104.6 69.7991 107.981C70.7736 107.728 71.7355 107.448 72.6975 107.141C72.9911 108.124 73.2847 109.101 73.5845 110.084H73.5783Z" fill="#006AA3"/>
<path d="M84.6588 105.132C81.6167 106.922 78.431 108.397 75.1516 109.551C73.7398 105.289 72.3219 101.021 70.9102 96.7595C73.4025 95.8785 75.8324 94.7585 78.1561 93.3994C78.6434 94.2941 79.1244 95.1956 79.6116 96.0902C78.2249 96.8961 76.8069 97.6268 75.3577 98.2825C75.6263 98.9244 75.8949 99.5732 76.1697 100.215C77.6127 99.5664 79.0307 98.8425 80.4111 98.0434C80.8297 98.822 81.2419 99.6006 81.6605 100.379C80.205 101.219 78.7121 101.984 77.1942 102.667C77.5252 103.459 77.8563 104.245 78.1874 105.03C79.8989 104.265 81.573 103.398 83.2033 102.442C83.6906 103.336 84.1778 104.231 84.665 105.132H84.6588Z" fill="#006AA3"/>
<path d="M86.176 104.21C83.9272 100.352 81.6784 96.4931 79.4297 92.6345C80.5915 91.8969 81.7222 91.1047 82.8216 90.2441C85.189 91.5964 87.6814 92.7847 90.2862 93.7955C90.4673 93.6247 90.6485 93.4608 90.8296 93.2832C89.193 91.3778 87.5564 89.4724 85.9198 87.567C86.7381 86.7885 87.5377 85.9689 88.306 85.1152C91.4293 88.2363 94.5463 91.3573 97.6696 94.4784C96.3828 95.9126 95.046 97.258 93.6468 98.5214C90.9795 97.5517 88.4185 96.4111 85.9761 95.1067C85.7887 95.2501 85.6013 95.3935 85.4139 95.537C86.8381 97.6199 88.2623 99.7029 89.6928 101.786C88.5434 102.646 87.369 103.452 86.1697 104.21H86.176Z" fill="#006AA3"/>
<path d="M99.1438 92.7719C95.9144 89.7806 92.6787 86.7893 89.4492 83.798C90.4612 82.5756 91.4231 81.278 92.3226 79.9053C94.8275 76.0808 98.2943 74.4895 101.73 76.1354C105.197 77.754 106.196 82.5892 102.873 87.7182C101.705 89.5006 100.456 91.1875 99.1376 92.7788L99.1438 92.7719ZM94.284 82.8761C95.9893 84.2078 97.6884 85.5396 99.3937 86.8781C99.6373 86.523 99.8809 86.1679 100.118 85.8059C101.761 83.2858 101.218 81.3326 99.6561 80.3765C98.0444 79.3794 96.3391 79.7687 94.9149 81.9473C94.7088 82.2614 94.4964 82.5687 94.2903 82.8761H94.284Z" fill="#006AA3"/>
<path d="M105.634 68.8138C105.49 69.3055 105.34 69.7904 105.191 70.2753C106.877 70.8627 108.57 71.4568 110.257 72.0441C109.688 73.8403 109.051 75.5818 108.364 77.2619C104.435 75.4452 100.499 73.6286 96.5703 71.8119C97.1013 70.5144 97.5947 69.169 98.032 67.7826C99.5499 68.3084 101.062 68.8411 102.579 69.367C102.698 68.9846 102.817 68.5953 102.936 68.206C101.717 66.6762 100.437 65.2284 99.1189 63.8693C99.4999 62.2644 99.8248 60.6048 100.087 58.8906C101.849 60.4682 103.541 62.1892 105.159 64.04C107.783 62.961 110.4 61.6224 112.993 59.9902C112.655 62.2985 112.237 64.5318 111.731 66.683C109.694 67.5367 107.658 68.247 105.634 68.8138Z" fill="#006AA3"/>
<path d="M10.2939 43.5924C9.88784 44.9446 9.52554 46.331 9.20696 47.7584C10.981 48.1613 12.7487 48.5711 14.5228 48.974C14.1979 50.415 13.9231 51.9038 13.7045 53.4336C9.35063 52.9146 4.99055 52.4024 0.636719 51.8834C0.924059 49.8755 1.28636 47.9291 1.71112 46.0442C3.29774 46.4061 4.89061 46.7681 6.47723 47.1369C6.81454 45.6276 7.20183 44.1524 7.62659 42.7251C6.07745 42.2197 4.52206 41.7143 2.97292 41.2089C3.51012 39.4128 4.10355 37.6781 4.75943 36.0049C8.78845 37.7737 12.8237 39.5425 16.8527 41.3114C16.353 42.5885 15.897 43.9134 15.4847 45.2861C13.7544 44.7261 12.0242 44.1592 10.2939 43.5992V43.5924Z" fill="#FF5900"/>
<path d="M21.0258 33.546C18.852 36.9607 15.0166 38.6749 11.4124 37.0632C7.85183 35.4924 6.75869 30.2679 9.75703 25.5009C12.7991 20.7271 17.5027 20.1466 20.2387 23.0082C23.0247 25.9243 23.2058 30.0835 21.0258 33.5392V33.546ZM6.20275 28.8337C5.97787 28.6971 5.74675 28.5605 5.51562 28.4239C6.11529 27.2834 6.74619 26.1702 7.40208 25.0911C7.62071 25.2414 7.83934 25.3916 8.05797 25.5419C7.41457 26.6073 6.78992 27.7 6.1965 28.8269L6.20275 28.8337ZM18.1461 31.4903C19.2705 29.7079 19.0332 27.6522 17.5465 26.3819C16.0723 25.1185 13.961 25.4804 12.6367 27.5634C11.3312 29.6396 11.7872 31.9069 13.4487 32.8767C15.1166 33.8533 17.028 33.266 18.1461 31.4903ZM9.18235 23.7731C8.96997 23.616 8.75134 23.4521 8.53895 23.295C9.21983 22.2569 9.92569 21.253 10.6565 20.2832C10.8627 20.4539 11.0688 20.6315 11.2687 20.8022C10.5503 21.7652 9.85073 22.7555 9.18235 23.7731Z" fill="#FF5900"/>
<path d="M25.2664 27.5364C24.5356 26.7988 23.8047 26.068 23.0801 25.3304C23.3987 24.9753 23.7235 24.6338 24.0484 24.2924C24.723 23.5958 24.723 22.8582 24.0359 22.066C22.0994 19.8601 20.163 17.6473 18.2266 15.4346C19.3447 14.3487 20.5003 13.3174 21.6934 12.3477C23.5611 14.8677 25.4351 17.381 27.3028 19.901C28.9144 22.1274 28.6895 24.0807 26.8968 25.8358C26.3408 26.3822 25.7974 26.949 25.2727 27.5364H25.2664Z" fill="#FF5900"/>
<path d="M30.7647 22.4689C30.1713 21.6153 29.5716 20.7684 28.9782 19.9147C30.3087 18.8971 31.6892 17.9615 33.1072 17.1147C34.0442 16.5615 34.1191 15.8034 33.8318 15.2297C33.5445 14.6629 32.9385 14.2736 31.8829 14.9019C31.583 15.0795 31.277 15.2707 30.9771 15.4551C28.8033 16.8278 26.4983 16.6229 25.1116 14.7107C23.7311 12.8121 24.3933 10.1828 27.0043 8.53005C28.9845 7.28709 31.0271 6.18072 33.1197 5.21777C33.532 6.18072 33.9442 7.14367 34.3565 8.0998C32.6824 8.87152 31.0396 9.73203 29.4405 10.695C28.7159 11.1321 28.5472 11.7194 28.8346 12.2043C29.0907 12.6482 29.6528 12.7575 30.3525 12.334C30.6461 12.1565 30.9396 11.9857 31.2332 11.815C34.0942 10.2033 36.4491 11.3165 37.3361 13.5429C38.2481 15.8307 37.586 18.1459 35.2685 19.4708C33.7131 20.3586 32.2077 21.3626 30.7585 22.4689H30.7647Z" fill="#FF5900"/>
<path d="M42.5818 10.2235C42.2195 10.3328 41.8634 10.4421 41.5011 10.5582C42.0508 12.3748 42.5943 14.1915 43.144 16.0081C42.0696 16.3496 41.0076 16.7388 39.9645 17.1759C38.3154 12.9143 36.6725 8.6596 35.0234 4.39802C36.3977 3.83118 37.7844 3.31897 39.1899 2.86822C39.6771 4.50046 40.1706 6.12587 40.6641 7.75811C40.9827 7.65567 41.3012 7.56006 41.626 7.46445C42.0196 5.57269 42.5006 3.6741 43.0753 1.78917C44.6306 1.41355 46.2048 1.10622 47.7852 0.874023C46.8607 3.13457 46.0736 5.42244 45.424 7.71713C47.1168 9.88207 48.6472 12.1358 50.0089 14.4441C48.7596 14.6217 47.5166 14.8539 46.286 15.1476C45.1429 13.4675 43.9123 11.8285 42.5943 10.2372L42.5818 10.2235Z" fill="#FF5900"/>
<path d="M55.5811 14.2668C52.0081 14.2873 48.9598 11.7468 48.2476 7.70376C47.5418 3.7222 50.5151 0.0547891 55.4687 0.000153642C60.4659 -0.0271641 63.4892 3.59244 62.8458 7.59449C62.1962 11.6443 59.1854 14.2395 55.5811 14.2737V14.2668ZM55.5499 10.6199C57.4113 10.6063 58.7856 9.22672 58.923 7.2257C59.0604 5.23833 57.6737 3.63341 55.4936 3.64707C53.3323 3.66756 51.9893 5.28614 52.158 7.27351C52.3266 9.2677 53.7071 10.6336 55.5499 10.6131V10.6199Z" fill="#FF5900"/>
<path d="M68.6875 15.9946C66.8573 15.4073 64.9958 14.9497 63.1094 14.6287C63.8527 10.1076 64.5898 5.58653 65.3331 1.06543C66.7823 1.31812 68.219 1.62544 69.6433 1.99424C68.8062 5.42945 67.9754 8.86466 67.1384 12.293C67.9567 12.5048 68.775 12.7438 69.587 12.9965C69.2872 13.9936 68.9874 14.9907 68.6875 15.9946Z" fill="#FF5900"/>
<path d="M76.964 19.6954C74.6903 18.3569 72.3041 17.2573 69.8555 16.39C71.2922 12.0533 72.7289 7.70975 74.1718 3.37305C77.3326 4.49308 80.4121 5.90677 83.3542 7.6278C82.8608 8.54294 82.3673 9.45126 81.8738 10.3664C80.3184 9.45809 78.7256 8.63856 77.0952 7.9078C76.8204 8.56343 76.5455 9.21906 76.2707 9.87469C77.7636 10.544 79.2315 11.2952 80.662 12.1216C80.2372 12.9138 79.8187 13.706 79.3939 14.4982C78.0384 13.7128 76.6455 13.0026 75.2275 12.3674C74.8902 13.1665 74.5529 13.9724 74.2218 14.7782C75.6648 15.427 77.0765 16.1578 78.457 16.9637C77.9635 17.872 77.4638 18.7871 76.9703 19.6954H76.964Z" fill="#FF5900"/>
<path d="M78.0941 20.3863C80.3804 16.4593 82.6729 12.5324 84.9591 8.60547C86.4333 9.53427 87.87 10.545 89.263 11.6309C88.9194 14.6154 88.3947 17.5316 87.6889 20.359C87.8638 20.516 88.0324 20.6799 88.2011 20.837C89.8626 18.8975 91.5305 16.9579 93.1921 15.0183C94.229 16.0018 95.2409 17.0398 96.2154 18.1257C93.0421 21.3014 89.8626 24.4771 86.6894 27.6528C85.7274 26.5806 84.728 25.5767 83.6848 24.6342C84.5031 21.9297 85.159 19.1365 85.6462 16.2681C85.4588 16.1247 85.2714 15.9813 85.0778 15.8379C83.6286 17.955 82.1794 20.0789 80.7239 22.1961C79.8682 21.5541 78.9874 20.9463 78.0879 20.3794L78.0941 20.3863Z" fill="#FF5900"/>
<path d="M87.7812 28.9288C91.0669 25.8829 94.3589 22.8369 97.6446 19.791C98.9313 21.3413 100.143 22.9872 101.286 24.7219C104.566 29.7825 103.498 34.5426 100.049 36.1475C96.4764 37.8549 92.9721 36.3729 90.5735 32.7055C89.6989 31.3737 88.7682 30.1103 87.7812 28.922V28.9288ZM97.8444 25.6097C96.1142 26.9687 94.3776 28.321 92.6473 29.68C92.8597 29.9805 93.0658 30.2878 93.272 30.5952C94.6587 32.7123 96.3578 33.0401 97.9694 32.0498C99.5935 31.0596 100.156 29.0995 98.5503 26.6341C98.3192 26.2858 98.0881 25.9443 97.8507 25.6029L97.8444 25.6097Z" fill="#FF5900"/>
<path d="M101.67 43.9817C101.538 43.5241 101.401 43.0734 101.257 42.6226C99.5395 43.2236 97.8217 43.8246 96.0976 44.4256C95.6729 43.0802 95.1982 41.7826 94.6797 40.526C98.6775 38.6752 102.675 36.8244 106.679 34.9805C107.354 36.6264 107.972 38.3269 108.535 40.0889C106.992 40.6284 105.449 41.168 103.906 41.7006C104.031 42.0968 104.156 42.5065 104.274 42.9095C106.148 43.49 108.029 44.2002 109.903 45.0471C110.39 47.0823 110.802 49.1857 111.127 51.3575C108.878 49.937 106.611 48.7418 104.337 47.7515C102.363 49.8345 100.289 51.7399 98.1403 53.4405C97.8904 51.7126 97.5718 50.0462 97.197 48.4345C98.7399 47.0549 100.233 45.5661 101.663 43.9885L101.67 43.9817Z" fill="#FF5900"/>
</g>
<defs>
<clipPath id="clip0_955_12973">
<rect width="113" height="113" fill="white"/>
</clipPath>
</defs>
</svg>
