<svg width="181" height="166" viewBox="0 0 181 166" fill="none" xmlns="http://www.w3.org/2000/svg">
<g clip-path="url(#clip0_127_526)">
<path d="M58.3118 94.8692C56.5618 98.6592 57.0118 98.9292 55.9718 100.269C54.5518 102.109 53.3818 102.029 52.8718 103.739C52.7618 104.109 52.8118 104.129 52.5218 106.389C52.2018 108.969 52.1518 108.819 52.1718 109.039C52.3918 111.209 55.5318 112.649 58.9618 114.179C62.5718 115.789 62.3518 115.109 63.5918 115.979C67.2518 118.569 65.8818 122.239 69.4018 124.309C69.6018 124.429 69.6018 124.409 74.2718 126.019C74.2718 126.019 77.3618 126.619 77.1718 126.129C77.0318 125.749 74.8918 124.449 73.6518 123.749C72.0018 122.819 72.7518 120.899 72.7518 120.669C72.7718 119.369 73.0118 118.589 73.0118 118.589L72.5218 116.649C72.5218 116.649 71.2218 115.739 71.1918 114.689C71.1818 114.159 70.4518 114.089 71.0818 113.019C71.2218 112.789 71.9918 111.499 71.5218 110.609C71.1418 109.869 70.2918 110.159 69.6418 109.399C68.8118 108.419 70.3218 108.539 70.4118 108.189C70.8818 106.369 72.7418 109.229 73.2718 107.409C73.3718 107.059 77.5018 106.369 76.9118 105.069C76.1118 103.319 78.0218 100.099 77.4318 98.5692C77.1418 97.8192 78.5918 94.9392 79.2518 92.8492C80.0718 90.2392 70.3718 89.5792 70.0118 89.1192C69.6718 88.6892 68.8818 88.9292 65.5218 89.7792C61.5118 90.7992 60.9018 90.8992 60.1118 91.6392C59.5818 92.1392 59.1518 93.0592 58.3118 94.8692Z" fill="#FF5900"/>
<path d="M98.0288 76.6103C96.9388 77.8503 95.8188 77.0503 93.6188 78.5203C92.8088 79.0603 91.3288 80.0603 90.9988 81.6703C90.7688 82.8003 91.3388 83.0703 91.6088 85.5903C91.7588 87.0103 91.6988 88.1203 91.6688 88.5503C91.5388 90.4703 91.1588 90.7503 91.0388 92.1903C90.9588 93.1203 93.9888 92.4603 95.1188 94.2503C96.3588 96.2203 96.9588 96.6503 97.6988 96.8303C100.509 96.4603 100.479 98.3503 101.479 97.4603C102.219 96.7903 102.959 95.8603 104.309 95.6103C105.189 95.4503 105.309 95.7603 106.649 95.7603C108.649 95.7603 108.599 96.0803 110.029 96.2603C110.349 96.3003 111.519 97.2503 112.319 98.5503C112.819 99.3603 113.619 98.4703 113.519 99.9103C113.379 101.79 112.939 101.84 113.099 102.8C113.259 103.83 113.789 103.92 115.359 106.18C116.569 107.92 117.289 113.04 117.769 113.17C119.179 113.55 120.759 110.5 122.929 108.87C124.079 108.01 124.509 105.07 124.939 104.29C126.659 101.14 125.669 100.11 126.089 99.4203C126.669 98.4603 127.149 94.4803 127.519 93.1203C127.739 92.3103 125.339 95.1603 126.479 94.0503C128.159 92.4203 128.619 92.6503 128.959 91.8603C129.599 90.3803 131.159 90.7903 131.519 88.8303C131.699 87.8803 130.069 88.1203 131.809 85.9703C133.779 83.5303 134.179 79.9503 133.749 79.3003C133.339 78.6803 131.519 79.6703 129.519 77.6603C129.319 77.4603 127.749 76.8903 126.079 75.0803C125.049 73.9703 124.149 75.4403 122.629 71.9603C121.489 69.3603 120.909 68.0503 120.029 67.5503C119.419 67.2003 118.779 66.9503 114.389 67.8103C110.889 68.4903 111.449 69.7603 108.599 70.2103C105.619 70.6803 104.439 69.3703 102.759 70.0403C101.249 70.6403 100.269 71.0203 99.5188 72.0203C98.1788 73.8003 99.2988 75.2103 98.0588 76.6203L98.0288 76.6103Z" fill="#FF5900"/>
<path d="M130.641 93.3807C130.061 94.0907 129.871 94.8707 129.681 95.6107C129.441 96.5607 129.451 97.2807 129.461 98.1607C129.481 99.7007 129.501 100.851 129.991 101.031C130.241 101.121 130.701 100.981 132.071 99.2807C134.071 96.7807 135.161 95.4207 135.541 93.2707C136.021 90.5307 135.071 88.0407 134.701 88.0607C134.351 88.0807 133.811 89.4307 132.371 90.8107C131.421 91.7207 131.571 92.2507 130.651 93.3707L130.641 93.3807Z" fill="#FF5900"/>
<path d="M42.6915 62.1693C42.4015 64.5293 43.8115 63.3893 42.4015 69.7993C42.2015 70.6993 40.2115 73.6293 40.8415 77.0793C41.0415 78.2093 41.2615 78.0793 42.9115 81.9393C44.3015 85.1993 44.9915 86.8393 45.2415 88.2093C45.7215 90.9193 45.3015 92.6593 46.1315 92.9993C46.9115 93.3193 47.5115 91.8893 48.8415 91.9093C50.5715 91.9393 50.8515 94.3693 53.3415 95.7393C55.5615 96.9593 58.3315 96.6793 58.6215 95.9293C58.9115 95.1593 56.4515 94.2393 56.5315 92.5293C56.5915 91.3193 57.8615 91.1693 58.5915 89.5192C59.5815 87.3192 58.0615 85.9393 58.8815 84.7993C59.9715 83.2993 72.0915 85.9793 67.9015 83.3593C65.6115 81.9293 72.4615 83.1493 75.3515 81.6393C79.3215 79.5693 80.5915 78.2892 81.9415 79.6292C83.3715 81.0592 83.3915 77.7293 84.2315 75.3293C85.9515 70.4593 91.6815 70.7493 90.2515 68.1693C85.6015 59.7993 85.8315 61.4793 85.7015 59.7093C85.4815 56.6493 84.0915 51.5793 81.4915 51.1693C79.7115 50.8893 76.4915 48.6893 73.3415 49.8293C72.7115 50.0593 71.8915 49.9493 70.4815 50.9793C68.8815 52.1493 69.0915 51.6793 67.5015 51.1393C65.2015 50.3593 61.3415 51.9793 60.1715 52.4093C57.2615 53.4793 55.7615 52.0193 53.8715 52.4093C50.5715 53.0893 52.3515 51.5993 49.4015 52.4593C47.8215 52.9193 46.2815 54.4593 46.2615 55.9593C46.2215 58.5393 42.9915 59.7993 42.7015 62.1493L42.6915 62.1693Z" fill="#FF5900"/>
<path d="M61.1809 48.5292C60.2209 48.5692 60.6209 48.1692 60.1609 47.9192C59.5809 47.5992 59.2809 48.1292 58.8709 48.0192C58.4109 47.8992 57.9509 47.4392 56.7309 48.1392C55.8809 48.6192 56.0409 48.7492 55.5809 49.2892C55.1009 49.8492 55.0609 50.1792 55.4109 50.4692C55.6409 50.6592 57.0109 49.4992 57.5909 49.3092C58.7409 48.9292 58.3709 49.3092 58.8709 49.3092C59.9009 49.2892 59.8509 49.9492 60.5409 49.8192C61.0709 49.7192 60.8609 50.4092 61.7209 49.5192C62.6509 48.5592 63.9109 48.6592 63.9009 48.3292C63.8909 48.0392 62.1209 48.4992 61.1809 48.5392V48.5292Z" fill="#FF5900"/>
<path d="M59.5519 50.2006C58.7519 50.3206 59.3119 50.1306 58.9619 50.0106C58.5119 49.8606 58.6219 49.6606 58.2919 49.6306C57.9219 49.6006 57.7419 49.9806 56.6519 50.5506C55.9019 50.9506 55.5719 50.8406 55.1419 51.2306C54.6919 51.6406 55.3219 51.5106 55.5919 51.6606C55.7619 51.7606 56.2219 51.9406 56.7119 51.7606C57.6919 51.4006 57.2919 52.1006 57.7019 52.0406C58.5519 51.9206 58.3119 52.4406 58.8919 52.2806C59.3319 52.1606 59.2819 51.5306 60.0719 50.8706C60.9319 50.1506 59.9319 50.5706 60.1519 50.5706C60.7919 50.5706 60.3219 50.0706 59.5419 50.1906L59.5519 50.2006Z" fill="#FF5900"/>
<path d="M104.279 55.0103C104.519 55.1403 104.779 54.9103 104.409 57.3003C104.259 58.2703 103.729 58.1403 103.429 58.4503C102.569 59.3103 101.709 59.6003 101.999 60.1703C102.129 60.4403 102.889 61.7503 104.009 61.8903C104.859 62.0003 104.009 62.1803 104.579 62.7503L104.869 63.6103C104.869 63.9003 104.579 64.1803 104.579 65.0403C104.579 66.4203 105.499 66.5003 106.009 66.7603C106.309 66.9103 106.779 67.6803 107.149 67.5603C107.499 67.4503 107.799 67.2303 107.999 66.9203L108.589 67.0403C108.879 66.7503 108.589 67.0403 110.019 67.0403C110.729 67.0403 111.739 68.7603 112.289 65.1803C112.499 63.8203 114.099 63.9103 114.599 63.6103C115.759 62.9203 116.399 62.9603 116.589 63.0403C118.319 63.7703 117.999 65.1303 119.929 66.3803C121.329 67.2903 121.909 66.8403 122.789 67.8103C123.679 68.7903 123.289 69.4903 124.219 70.4403C125.299 71.5403 126.359 72.4903 126.629 72.5003C127.619 72.5403 128.749 72.9003 130.349 72.5003C131.999 72.0803 131.409 71.0703 132.929 71.0703C136.369 71.0703 137.569 73.3703 136.939 69.0603C136.759 67.8603 138.149 67.8503 136.939 64.1903C135.429 59.6603 134.889 57.8503 134.079 56.7403C133.259 55.6203 133.789 56.1703 132.819 54.2103C131.119 50.8003 129.139 50.9003 126.609 48.9603C123.549 46.6103 120.539 45.7403 118.489 45.1403C115.919 44.3903 111.229 43.0303 106.079 44.4203C104.039 44.9703 104.199 45.3403 99.8693 46.8103C98.8393 47.1603 97.4193 47.6103 95.8093 48.7203C94.5693 49.5703 93.6193 50.2403 93.4193 51.3503C93.1993 52.6203 94.2393 52.9903 94.1393 54.6903C94.0593 56.0103 92.5593 55.2003 92.8193 56.1703C93.0193 56.9303 94.5493 58.9303 95.3293 58.9903C96.2593 59.0503 96.5193 60.8403 97.9693 60.4703C98.8593 60.2503 98.8993 57.7203 99.8593 57.5603C101.059 57.3503 101.549 56.0003 103.199 55.4103C104.269 55.0303 104.049 54.9103 104.269 55.0303L104.279 55.0103Z" fill="#FF5900"/>
<path d="M71.3785 86.9492C71.6985 87.1092 71.4886 87.6492 71.9386 87.9892C72.3786 88.3192 72.6985 87.9092 73.3485 88.2592C73.7085 88.4492 74.2285 88.9092 74.2885 89.2692C74.2885 89.2792 74.2885 89.3092 74.3085 89.3192C74.4485 89.4392 75.0285 88.7592 75.9885 88.1792C76.7485 87.7192 76.9585 87.8092 77.2385 87.4292C77.2685 87.3892 77.7186 86.7592 77.5086 86.0192C77.3386 85.4292 76.8386 85.1292 76.5486 84.9592C75.7086 84.4692 75.3486 84.7992 74.5486 84.4592C73.4086 83.9692 73.5685 83.0492 72.5985 82.7392C71.9485 82.5392 72.3386 83.4492 71.3286 83.8992C70.5586 84.2392 70.0686 84.2592 69.4386 85.2292C69.1686 85.6592 68.3086 85.9592 68.5486 86.8092C68.6786 87.2792 68.0685 88.1192 68.6785 88.2392C69.7885 88.4392 70.7685 86.6392 71.3785 86.9492Z" fill="#FF5900"/>
<path d="M65.3303 85.8396C64.3003 86.7096 63.7703 87.5696 64.0103 87.9796C64.1703 88.2696 64.7403 88.3896 65.1303 88.2196C65.5403 88.0396 65.4403 87.6896 65.8903 87.2896C66.4403 86.8096 66.8603 87.0896 67.3103 86.6296C67.6403 86.2896 67.8803 85.6696 67.6303 85.3696C67.4303 85.1396 66.9403 85.1296 66.4703 85.3696" fill="#FF5900"/>
<path d="M99.4986 59.8807C98.5886 60.6007 98.6186 60.8907 98.0486 61.1407C97.3986 61.4407 97.1086 61.1507 96.6586 61.5007C96.2786 61.7907 96.0586 62.3207 96.1086 62.8207C96.1986 63.6207 96.9986 64.1707 97.6486 64.2007C98.2686 64.2207 98.3486 63.7507 99.2386 63.4907C100.329 63.1707 100.989 63.6307 101.249 63.2707C101.459 62.9707 101.049 62.6207 100.819 61.6107C100.519 60.3007 100.869 59.4807 100.519 59.3207C100.319 59.2307 100.039 59.4507 99.4786 59.8807H99.4986Z" fill="#FF5900"/>
<path d="M11.98 101.379C11.29 99.2591 10.66 97.0691 10.11 94.8291C7.32 95.4091 4.54 95.9991 1.75 96.5791C1.06 93.7591 0.47 90.8391 0 87.8491C6.85 87.1091 13.71 86.3591 20.56 85.6191C20.93 87.9391 21.38 90.1891 21.92 92.3691C19.42 92.8891 16.92 93.4191 14.42 93.9391C14.94 96.0691 15.53 98.1291 16.19 100.139C18.63 99.4091 21.07 98.6891 23.52 97.9591C24.2 100.029 24.95 102.039 25.78 103.969C19.44 106.509 13.09 109.059 6.75 111.599C5.68 109.089 4.7 106.499 3.83 103.809C6.55 102.999 9.28 102.189 12 101.379H11.98Z" fill="#FF5900"/>
<path d="M14.9306 127.291C10.0406 120.171 11.7406 112.391 17.3606 110.131C23.0006 107.821 29.0706 110.541 32.6606 115.721C36.2706 120.961 36.2106 127.041 31.8406 131.221C27.5106 135.361 19.8906 134.431 14.9306 127.291ZM31.6606 110.041C32.0206 109.841 32.3806 109.651 32.7406 109.451C33.4306 110.651 34.1506 111.811 34.9006 112.941C34.5506 113.161 34.2106 113.371 33.8606 113.591C33.1006 112.441 32.3606 111.261 31.6606 110.041ZM19.4706 124.331C21.6406 127.461 25.0206 128.051 27.3506 126.241C29.6906 124.411 30.0006 121.371 28.1406 118.681C26.3006 116.011 23.2506 115.071 20.6206 116.471C18.0006 117.861 17.3406 121.221 19.4806 124.331H19.4706ZM35.1806 115.511C35.5206 115.281 35.8606 115.051 36.1906 114.821C36.9706 115.901 37.7806 116.961 38.6106 117.971C38.2906 118.221 37.9606 118.471 37.6406 118.721C36.7906 117.681 35.9706 116.611 35.1706 115.511H35.1806Z" fill="#FF5900"/>
<path d="M24.7795 138.59C25.9295 137.53 27.0795 136.47 28.2195 135.41C28.8195 136.02 29.4295 136.62 30.0495 137.2C31.3395 138.42 32.5695 138.41 33.6495 137.28C36.6995 134.1 39.7495 130.92 42.7895 127.74C44.1995 129 45.6695 130.18 47.1695 131.31C44.2295 134.93 41.2795 138.56 38.3395 142.18C35.8295 145.34 32.1695 145.41 28.2495 141.91C27.0595 140.84 25.8995 139.73 24.7695 138.58L24.7795 138.59Z" fill="#FF5900"/>
<path d="M36.5491 148.51C37.4891 147.28 38.4191 146.06 39.3591 144.83C41.8791 146.6 44.4991 148.22 47.1791 149.69C48.9591 150.66 50.1191 150.17 50.5691 149.36C51.0291 148.53 50.9091 147.48 49.1091 146.51C48.5891 146.22 48.0691 145.93 47.5591 145.64C43.7391 143.43 42.8391 139.78 44.9991 137.04C47.1791 134.29 50.6791 133.87 53.8991 135.73C56.3991 137.17 58.9791 138.44 61.6291 139.56C60.9791 140.94 60.3291 142.33 59.6891 143.71C57.2991 142.71 54.9591 141.58 52.6791 140.33C51.6491 139.76 50.8091 139.94 50.3591 140.65C49.9491 141.28 50.1791 142.1 51.2491 142.69C51.6991 142.94 52.1491 143.18 52.5991 143.42C56.8691 145.63 58.2491 149.06 56.8291 152.31C55.4191 155.56 51.3091 157.04 46.1991 154.4C42.8691 152.66 39.6391 150.7 36.5391 148.53L36.5491 148.51Z" fill="#FF5900"/>
<path d="M67.5095 153.87C66.8895 153.7 66.2695 153.53 65.6595 153.35C64.7995 155.96 63.9395 158.58 63.0795 161.19C60.7795 160.52 58.5095 159.75 56.2695 158.91C58.8595 152.78 61.4495 146.65 64.0395 140.52C65.7695 141.18 67.5295 141.76 69.2995 142.28C68.5295 144.62 67.7595 146.97 66.9895 149.31C67.4795 149.45 67.9695 149.59 68.4595 149.73C70.4895 147.73 72.4095 145.66 74.1995 143.53C76.1695 143.96 78.1595 144.32 80.1495 144.59C78.1495 147.37 75.9395 150.08 73.5395 152.69C74.6595 156.57 76.0695 160.43 77.7595 164.26C75.0795 163.91 72.4195 163.45 69.7795 162.88C68.8695 159.88 68.1095 156.86 67.5095 153.86V153.87Z" fill="#FF5900"/>
<path d="M89.7008 165.46C81.6008 165.38 76.7308 159.99 77.8508 154.23C78.9608 148.44 83.9608 144.89 89.8808 144.93C95.8508 144.98 100.801 148.6 101.801 154.4C102.821 160.18 97.8608 165.5 89.7008 165.46ZM89.7508 160.2C93.3208 160.22 95.6008 157.91 95.3808 155.05C95.1608 152.18 92.9008 150.19 89.8308 150.17C86.7908 150.15 84.5208 152.09 84.2608 154.97C84.0008 157.83 86.2008 160.17 89.7508 160.2Z" fill="#FF5900"/>
<path d="M117.792 161.189C113.872 162.339 109.882 163.229 105.852 163.869C104.682 157.359 103.522 150.859 102.352 144.349C104.182 144.059 105.992 143.699 107.802 143.279C109.112 148.219 110.432 153.159 111.742 158.109C113.302 157.739 114.842 157.329 116.382 156.879C116.852 158.319 117.322 159.749 117.802 161.189H117.792Z" fill="#FF5900"/>
<path d="M135.53 153.94C130.66 156.56 125.56 158.72 120.31 160.41C118.05 154.17 115.78 147.92 113.52 141.68C117.51 140.39 121.4 138.75 125.12 136.76C125.9 138.07 126.67 139.39 127.45 140.7C125.23 141.88 122.96 142.95 120.64 143.91C121.07 144.85 121.5 145.8 121.94 146.74C124.25 145.79 126.52 144.73 128.73 143.56C129.4 144.7 130.06 145.84 130.73 146.98C128.4 148.21 126.01 149.33 123.58 150.33C124.11 151.49 124.64 152.64 125.17 153.79C127.91 152.67 130.59 151.4 133.2 150C133.98 151.31 134.76 152.62 135.54 153.94H135.53Z" fill="#FF5900"/>
<path d="M137.96 152.591C134.36 146.941 130.76 141.291 127.16 135.641C129.02 134.561 130.83 133.401 132.59 132.141C136.38 134.121 140.37 135.861 144.54 137.341C144.83 137.091 145.12 136.851 145.41 136.591C142.79 133.801 140.17 131.011 137.55 128.221C138.86 127.081 140.14 125.881 141.37 124.631C146.37 129.201 151.36 133.771 156.36 138.341C154.3 140.441 152.16 142.411 149.92 144.261C145.65 142.841 141.55 141.171 137.64 139.261C137.34 139.471 137.04 139.681 136.74 139.891C139.02 142.941 141.3 145.991 143.59 149.041C141.75 150.301 139.87 151.481 137.95 152.591H137.96Z" fill="#FF5900"/>
<path d="M158.719 135.84C153.549 131.46 148.369 127.08 143.199 122.7C144.819 120.91 146.359 119.01 147.799 117C151.809 111.4 157.359 109.07 162.859 111.48C168.409 113.85 170.009 120.93 164.689 128.44C162.819 131.05 160.819 133.52 158.709 135.85L158.719 135.84ZM150.939 121.35C153.669 123.3 156.389 125.25 159.119 127.21C159.509 126.69 159.899 126.17 160.279 125.64C162.909 121.95 162.039 119.09 159.539 117.69C156.959 116.23 154.229 116.8 151.949 119.99C151.619 120.45 151.279 120.9 150.949 121.35H150.939Z" fill="#FF5900"/>
<path d="M169.112 100.76C168.882 101.48 168.642 102.19 168.402 102.9C171.102 103.76 173.812 104.63 176.512 105.49C175.602 108.12 174.582 110.67 173.482 113.13C167.192 110.47 160.892 107.81 154.602 105.15C155.452 103.25 156.242 101.28 156.942 99.2505C159.372 100.02 161.792 100.8 164.222 101.57C164.412 101.01 164.602 100.44 164.792 99.8705C162.842 97.6305 160.792 95.5105 158.682 93.5205C159.292 91.1705 159.812 88.7405 160.232 86.2305C163.052 88.5405 165.762 91.0605 168.352 93.7705C172.552 92.1905 176.742 90.2305 180.892 87.8405C180.352 91.2205 179.682 94.4905 178.872 97.6405C175.612 98.8905 172.352 99.9305 169.112 100.76Z" fill="#FF5900"/>
<path d="M16.4795 63.8307C15.8295 65.8107 15.2495 67.8407 14.7395 69.9307C17.5795 70.5207 20.4095 71.1207 23.2495 71.7107C22.7295 73.8207 22.2895 76.0007 21.9395 78.2407C14.9695 77.4807 7.98953 76.7307 1.01953 75.9707C1.47953 73.0307 2.05953 70.1807 2.73953 67.4207C5.27953 67.9507 7.82953 68.4807 10.3695 69.0207C10.9095 66.8107 11.5295 64.6507 12.2095 62.5607C9.72953 61.8207 7.23953 61.0807 4.75953 60.3407C5.61953 57.7107 6.56953 55.1707 7.61953 52.7207C14.0695 55.3107 20.5295 57.9007 26.9795 60.4907C26.1795 62.3607 25.4495 64.3007 24.7895 66.3107C22.0195 65.4907 19.2495 64.6607 16.4795 63.8407V63.8307Z" fill="#FF5900"/>
<path d="M33.6581 49.1192C30.1781 54.1192 24.0381 56.6292 18.2681 54.2692C12.5681 51.9692 10.8181 44.3192 15.6181 37.3392C20.4881 30.3492 28.0181 29.4992 32.3981 33.6892C36.8581 37.9592 37.1481 44.0492 33.6581 49.1092V49.1192ZM9.92813 42.2192C9.56813 42.0192 9.19813 41.8192 8.82812 41.6192C9.78812 39.9492 10.7981 38.3192 11.8481 36.7392C12.1981 36.9592 12.5481 37.1792 12.8981 37.3992C11.8681 38.9592 10.8681 40.5592 9.91813 42.2092L9.92813 42.2192ZM29.0481 46.1092C30.8481 43.4992 30.4681 40.4892 28.0881 38.6292C25.7281 36.7792 22.3481 37.3092 20.2281 40.3592C18.1381 43.3992 18.8681 46.7192 21.5281 48.1392C24.1981 49.5692 27.2581 48.7092 29.0481 46.1092ZM14.6981 34.8092C14.3581 34.5792 14.0081 34.3392 13.6681 34.1092C14.7581 32.5892 15.8881 31.1192 17.0581 29.6992C17.3881 29.9492 17.7181 30.2092 18.0381 30.4592C16.8881 31.8692 15.7681 33.3192 14.6981 34.8092Z" fill="#FF5900"/>
<path d="M40.4497 40.3201C39.2797 39.2401 38.1097 38.1701 36.9497 37.0901C37.4597 36.5701 37.9797 36.0701 38.4997 35.5701C39.5797 34.5501 39.5797 33.4701 38.4797 32.3101C35.3797 29.0801 32.2797 25.8401 29.1797 22.6001C30.9697 21.0101 32.8197 19.5001 34.7297 18.0801C37.7197 21.7701 40.7197 25.4501 43.7097 29.1401C46.2897 32.4001 45.9297 35.2601 43.0597 37.8301C42.1697 38.6301 41.2997 39.4601 40.4597 40.3201H40.4497Z" fill="#FF5900"/>
<path d="M49.2503 32.9006C48.3003 31.6506 47.3403 30.4106 46.3903 29.1606C48.5203 27.6706 50.7303 26.3006 53.0003 25.0606C54.5003 24.2506 54.6203 23.1406 54.1603 22.3006C53.7003 21.4706 52.7303 20.9006 51.0403 21.8206C50.5603 22.0806 50.0703 22.3606 49.5903 22.6306C46.1103 24.6406 42.4203 24.3406 40.2003 21.5406C37.9903 18.7606 39.0503 14.9106 43.2303 12.4906C46.4003 10.6706 49.6703 9.05062 53.0203 7.64062C53.6803 9.05062 54.3403 10.4606 55.0003 11.8606C52.3203 12.9906 49.6903 14.2506 47.1303 15.6606C45.9703 16.3006 45.7003 17.1606 46.1603 17.8706C46.5703 18.5206 47.4703 18.6806 48.5903 18.0606C49.0603 17.8006 49.5303 17.5506 50.0003 17.3006C54.5803 14.9406 58.3503 16.5706 59.7703 19.8306C61.2303 23.1806 60.1703 26.5706 56.4603 28.5106C53.9703 29.8106 51.5603 31.2806 49.2403 32.9006H49.2503Z" fill="#FF5900"/>
<path d="M68.1703 14.9693C67.5903 15.1293 67.0203 15.2893 66.4403 15.4593C67.3203 18.1193 68.1903 20.7793 69.0703 23.4393C67.3503 23.9393 65.6503 24.5093 63.9803 25.1493C61.3403 18.9093 58.7103 12.6793 56.0703 6.4393C58.2703 5.6093 60.4903 4.8593 62.7403 4.1993C63.5203 6.5893 64.3103 8.9693 65.1003 11.3593C65.6103 11.2093 66.1203 11.0693 66.6403 10.9293C67.2703 8.1593 68.0403 5.3793 68.9603 2.6193C71.4503 2.0693 73.9703 1.6193 76.5003 1.2793C75.0203 4.5893 73.7603 7.9393 72.7203 11.2993C75.4303 14.4693 77.8803 17.7693 80.0603 21.1493C78.0603 21.4093 76.0703 21.7493 74.1003 22.1793C72.2703 19.7193 70.3003 17.3193 68.1903 14.9893L68.1703 14.9693Z" fill="#FF5900"/>
<path d="M88.9793 20.8902C83.2593 20.9202 78.3793 17.2002 77.2393 11.2802C76.1093 5.45022 80.8693 0.080225 88.7993 0.000224971C96.7993 -0.039775 101.639 5.26022 100.609 11.1202C99.5693 17.0502 94.7493 20.8502 88.9793 20.9002V20.8902ZM88.9293 15.5502C91.9093 15.5302 94.1093 13.5102 94.3293 10.5802C94.5493 7.67023 92.3293 5.32023 88.8393 5.34023C85.3793 5.37023 83.2293 7.74022 83.4993 10.6502C83.7693 13.5702 85.9793 15.5702 88.9293 15.5402V15.5502Z" fill="#FF5900"/>
<path d="M109.961 23.4205C107.031 22.5605 104.051 21.8905 101.031 21.4205C102.221 14.8005 103.401 8.18055 104.591 1.56055C106.911 1.93055 109.211 2.38055 111.491 2.92055C110.151 7.95055 108.821 12.9805 107.481 18.0005C108.791 18.3105 110.101 18.6605 111.401 19.0305C110.921 20.4905 110.441 21.9505 109.961 23.4205Z" fill="#FF5900"/>
<path d="M123.208 28.8395C119.568 26.8795 115.748 25.2695 111.828 23.9995C114.128 17.6495 116.428 11.2895 118.738 4.93945C123.798 6.57945 128.728 8.64945 133.438 11.1695C132.648 12.5095 131.858 13.8395 131.068 15.1795C128.578 13.8495 126.028 12.6495 123.418 11.5795C122.978 12.5395 122.538 13.4995 122.098 14.4595C124.488 15.4395 126.838 16.5395 129.128 17.7495C128.448 18.9095 127.778 20.0695 127.098 21.2295C124.928 20.0795 122.698 19.0395 120.428 18.1095C119.888 19.2795 119.348 20.4595 118.818 21.6395C121.128 22.5895 123.388 23.6595 125.598 24.8395C124.808 26.1695 124.008 27.5095 123.218 28.8395H123.208Z" fill="#FF5900"/>
<path d="M125.022 29.8496C128.682 24.0996 132.352 18.3496 136.012 12.5996C138.372 13.9596 140.672 15.4396 142.902 17.0296C142.352 21.3996 141.512 25.6696 140.382 29.8096C140.662 30.0396 140.932 30.2796 141.202 30.5096C143.862 27.6696 146.532 24.8296 149.192 21.9896C150.852 23.4296 152.472 24.9496 154.032 26.5396C148.952 31.1896 143.862 35.8396 138.782 40.4896C137.242 38.9196 135.642 37.4496 133.972 36.0696C135.282 32.1096 136.332 28.0196 137.112 23.8196C136.812 23.6096 136.512 23.3996 136.202 23.1896C133.882 26.2896 131.562 29.3996 129.232 32.4996C127.862 31.5596 126.452 30.6696 125.012 29.8396L125.022 29.8496Z" fill="#FF5900"/>
<path d="M140.531 42.3605C145.791 37.9005 151.061 33.4405 156.321 28.9805C158.381 31.2505 160.321 33.6605 162.151 36.2005C167.401 43.6105 165.691 50.5805 160.171 52.9305C154.451 55.4305 148.841 53.2605 145.001 47.8905C143.601 45.9405 142.111 44.0905 140.531 42.3505V42.3605ZM156.641 37.5005C153.871 39.4905 151.091 41.4705 148.321 43.4605C148.661 43.9005 148.991 44.3505 149.321 44.8005C151.541 47.9005 154.261 48.3805 156.841 46.9305C159.441 45.4805 160.341 42.6105 157.771 39.0005C157.401 38.4905 157.031 37.9905 156.651 37.4905L156.641 37.5005Z" fill="#FF5900"/>
<path d="M162.76 64.4007C162.55 63.7307 162.33 63.0707 162.1 62.4107C159.35 63.2907 156.6 64.1707 153.84 65.0507C153.16 63.0807 152.4 61.1807 151.57 59.3407C157.97 56.6307 164.37 53.9207 170.78 51.2207C171.86 53.6307 172.85 56.1207 173.75 58.7007C171.28 59.4907 168.81 60.2807 166.34 61.0607C166.54 61.6407 166.74 62.2407 166.93 62.8307C169.93 63.6807 172.94 64.7207 175.94 65.9607C176.72 68.9407 177.38 72.0207 177.9 75.2007C174.3 73.1207 170.67 71.3707 167.03 69.9207C163.87 72.9707 160.55 75.7607 157.11 78.2507C156.71 75.7207 156.2 73.2807 155.6 70.9207C158.07 68.9007 160.46 66.7207 162.75 64.4107L162.76 64.4007Z" fill="#FF5900"/>
</g>
<defs>
<clipPath id="clip0_127_526">
<rect width="180.9" height="165.46" fill="white"/>
</clipPath>
</defs>
</svg>
