<svg width="36" height="35" viewBox="0 0 36 35" fill="none" xmlns="http://www.w3.org/2000/svg">
<g filter="url(#filter0_i_482_130362)">
<rect x="0.589844" y="0.5" width="34" height="34" rx="17" stroke="#FFEEE5"/>
<path d="M23.0635 18.9531C23.4736 19.4727 23.7197 20.1289 23.6924 20.8125C23.6924 22.5078 22.3252 23.875 20.6299 23.875C19.9463 23.875 19.29 23.6562 18.7705 23.2461C18.3877 23.3281 17.9775 23.3828 17.5674 23.3828C14.4775 23.3828 11.9619 20.8672 11.9619 17.75C11.9619 17.3672 12.0166 16.957 12.0986 16.5742C11.6885 16.0547 11.4697 15.3984 11.4697 14.6875C11.4697 13.0195 12.8369 11.625 14.5322 11.625C15.2158 11.625 15.8721 11.8711 16.3916 12.2812C16.7744 12.1992 17.1846 12.1445 17.5947 12.1445C20.6846 12.1445 23.2002 14.6602 23.2002 17.75C23.2002 18.1602 23.1455 18.5703 23.0635 18.9531ZM17.7588 21.4688C19.2627 21.4688 20.8213 20.7031 20.8213 19.0898C20.8213 17.6953 19.4541 17.2305 18.333 16.9844C17.0205 16.6562 16.4463 16.6016 16.4463 16.082C16.4463 15.6445 16.8838 15.4531 17.5947 15.4531C18.8525 15.4531 18.8799 16.3828 19.6455 16.3828C20.165 16.3828 20.4658 15.9727 20.4658 15.5078C20.4658 14.5781 18.9346 13.9766 17.4307 13.9766C16.0635 13.9766 14.4502 14.5781 14.4502 16.2188C14.4502 17.9961 15.9814 18.1602 17.6768 18.5977C18.3877 18.7617 18.8252 18.8438 18.8252 19.3633C18.8252 19.7734 18.3604 20.0742 17.6768 20.0742C16.2002 20.0742 16.1182 18.8438 15.2705 18.8438C14.6963 18.8438 14.4502 19.2539 14.4502 19.6914C14.4502 20.6758 15.9541 21.4688 17.7588 21.4688Z" fill="#EBEBEB"/>
</g>
<defs>
<filter id="filter0_i_482_130362" x="0.0898438" y="0" width="35" height="35" filterUnits="userSpaceOnUse" color-interpolation-filters="sRGB">
<feFlood flood-opacity="0" result="BackgroundImageFix"/>
<feBlend mode="normal" in="SourceGraphic" in2="BackgroundImageFix" result="shape"/>
<feColorMatrix in="SourceAlpha" type="matrix" values="0 0 0 0 0 0 0 0 0 0 0 0 0 0 0 0 0 0 127 0" result="hardAlpha"/>
<feMorphology radius="2" operator="erode" in="SourceAlpha" result="effect1_innerShadow_482_130362"/>
<feOffset/>
<feComposite in2="hardAlpha" operator="arithmetic" k2="-1" k3="1"/>
<feColorMatrix type="matrix" values="0 0 0 0 0.886275 0 0 0 0 0.886275 0 0 0 0 0.886275 0 0 0 1 0"/>
<feBlend mode="normal" in2="shape" result="effect1_innerShadow_482_130362"/>
</filter>
</defs>
</svg>
