<svg width="35" height="29" viewBox="0 0 35 29" fill="none" xmlns="http://www.w3.org/2000/svg">
<path d="M7.71094 11.7109C7.71094 11.7109 7.53776 11.8841 7.19141 12.2305C6.84505 12.5768 6.19792 12.75 5.25 12.75C4.30208 12.75 3.48177 12.4036 2.78906 11.7109C2.09635 11.0182 1.75 10.1979 1.75 9.25C1.75 8.30208 2.09635 7.48177 2.78906 6.78906C3.48177 6.09635 4.30208 5.75 5.25 5.75C6.19792 5.75 7.01823 6.09635 7.71094 6.78906C8.40365 7.48177 8.75 8.30208 8.75 9.25C8.75 10.1979 8.40365 11.0182 7.71094 11.7109ZM32.2109 11.7109C32.2109 11.7109 32.0378 11.8841 31.6914 12.2305C31.3451 12.5768 30.6979 12.75 29.75 12.75C28.8021 12.75 27.9818 12.4036 27.2891 11.7109C26.5964 11.0182 26.25 10.1979 26.25 9.25C26.25 8.30208 26.5964 7.48177 27.2891 6.78906C27.9818 6.09635 28.8021 5.75 29.75 5.75C30.6979 5.75 31.5182 6.09635 32.2109 6.78906C32.9036 7.48177 33.25 8.30208 33.25 9.25C33.25 10.1979 32.9036 11.0182 32.2109 11.7109ZM31.5 14.5C32.4479 14.5 33.2682 14.8464 33.9609 15.5391C34.6536 16.2318 35 17.0521 35 18V19.75C35 20.224 34.8268 20.6341 34.4805 20.9805C34.1341 21.3268 33.724 21.5 33.25 21.5H29.6406C29.4583 20.224 29.0026 19.0573 28.2734 18C27.5443 16.9427 26.6328 16.1224 25.5391 15.5391C26.2318 14.8464 27.0521 14.5 28 14.5H31.5ZM21.8203 12.6953C21.8203 12.6953 21.5195 12.9961 20.918 13.5977C20.3164 14.1992 19.1771 14.5 17.5 14.5C15.8229 14.5 14.3828 13.8984 13.1797 12.6953C11.9766 11.4922 11.375 10.0521 11.375 8.375C11.375 6.69792 11.9766 5.25781 13.1797 4.05469C14.3828 2.85156 15.8229 2.25 17.5 2.25C19.1771 2.25 20.6172 2.85156 21.8203 4.05469C23.0234 5.25781 23.625 6.69792 23.625 8.375C23.625 10.0521 23.0234 11.4922 21.8203 12.6953ZM21.7109 16.25C23.4609 16.25 24.9466 16.8607 26.168 18.082C27.3893 19.3034 28 20.7891 28 22.5391V24.125C28 24.8542 27.7448 25.474 27.2344 25.9844C26.724 26.4948 26.1042 26.75 25.375 26.75H9.625C8.89583 26.75 8.27604 26.4948 7.76562 25.9844C7.25521 25.474 7 24.8542 7 24.125V22.5391C7 20.7891 7.61068 19.3034 8.83203 18.082C10.0534 16.8607 11.5391 16.25 13.2891 16.25H13.7812C14.9844 16.8333 16.224 17.125 17.5 17.125C18.776 17.125 20.0156 16.8333 21.2188 16.25H21.7109ZM9.46094 15.5391C8.36719 16.1224 7.45573 16.9427 6.72656 18C5.9974 19.0573 5.54167 20.224 5.35938 21.5H1.75C1.27604 21.5 0.865885 21.3268 0.519531 20.9805C0.173177 20.6341 0 20.224 0 19.75V18C0 17.0521 0.346354 16.2318 1.03906 15.5391C1.73177 14.8464 2.55208 14.5 3.5 14.5H7C7.94792 14.5 8.76823 14.8464 9.46094 15.5391Z" fill="#FF5900"/>
</svg>
