<svg width="35" height="29" viewBox="0 0 35 29" fill="none" xmlns="http://www.w3.org/2000/svg">
<g clip-path="url(#clip0_482_4178)">
<path d="M34.7266 25.8203C34.9089 26.112 35 26.4219 35 26.75C35 27.0417 34.9271 27.3151 34.7812 27.5703C34.4531 28.1901 33.9427 28.5 33.25 28.5H1.75C1.05729 28.5 0.546875 28.1901 0.21875 27.5703C0.0729167 27.3151 0 27.0417 0 26.75C0 26.4219 0.0911458 26.112 0.273438 25.8203L16.0234 1.32031C16.388 0.773438 16.8802 0.5 17.5 0.5C18.1198 0.5 18.612 0.773438 18.9766 1.32031L34.7266 25.8203ZM17.5 5.47656L11.9219 14.1719L14 16.25L17.5 12.75H22.1484L17.5 5.47656Z" fill="#FF5900"/>
</g>
<defs>
<clipPath id="clip0_482_4178">
<rect width="35" height="29" fill="white" transform="matrix(1 0 0 -1 0 29)"/>
</clipPath>
</defs>
</svg>
