<svg width="28" height="29" viewBox="0 0 28 29" fill="none" xmlns="http://www.w3.org/2000/svg">
<g clip-path="url(#clip0_482_4180)">
<path d="M3.96411 4.90003C3.96411 4.90003 4.6248 4.2391 5.94617 2.91724C7.26754 1.59538 9.80548 0.934454 13.56 0.934454C17.3145 0.934454 20.5131 2.25631 23.1559 4.90003C25.7986 7.54374 27.12 10.7436 27.12 14.4995C27.12 18.2554 25.7986 21.4552 23.1559 24.0989C20.5131 26.7426 17.3145 28.0645 13.56 28.0645C9.80548 28.0645 6.60685 26.7426 3.96411 24.0989C1.32137 21.4552 0 18.2554 0 14.4995C0 10.7436 1.32137 7.54374 3.96411 4.90003ZM18.0435 20.5162C18.5539 20.0057 18.809 19.404 18.809 18.7112C18.809 18.2371 18.645 17.836 18.3169 17.5078L17.5515 16.7421C17.2234 16.4139 16.8224 16.2498 16.3485 16.2498H12.6852C12.5394 16.1768 12.266 15.8669 11.865 15.3199C11.464 14.7729 11.1542 14.4995 10.9355 14.4995C10.3523 14.4995 9.80548 14.3718 9.29516 14.1166L8.69371 13.7884C8.43855 13.679 8.31097 13.4967 8.31097 13.2414C8.31097 12.9132 8.45677 12.6944 8.74839 12.585L10.4434 12.0381C10.5527 12.0016 10.6439 11.9834 10.7168 11.9834C10.9355 11.9834 11.136 12.0563 11.3182 12.2022L11.8103 12.6397C11.8832 12.7127 11.9744 12.7491 12.0837 12.7491H12.4118C12.594 12.7491 12.7216 12.6762 12.7945 12.5303C12.8674 12.3845 12.8674 12.2386 12.7945 12.0928L11.9744 10.3971C11.9379 10.3607 11.9197 10.306 11.9197 10.233C11.9197 10.0872 11.9561 9.97779 12.029 9.90486L12.5758 9.35788C12.6487 9.28495 12.7581 9.24849 12.9039 9.24849H13.396C13.5053 9.24849 13.5965 9.21202 13.6694 9.13909L14.1068 8.70151C14.3255 8.48272 14.3255 8.26393 14.1068 8.04514L13.8881 7.82635C13.6694 7.60756 13.6694 7.38877 13.8881 7.16998L14.4348 6.623L14.7082 6.34951C15.1092 5.9484 15.1092 5.54728 14.7082 5.14617L13.1226 3.55994C12.6852 3.5964 12.2477 3.6511 11.8103 3.72403V4.3257C11.8103 4.65389 11.6736 4.90003 11.4002 5.06412C11.1269 5.22821 10.8444 5.23733 10.5527 5.09147L9.24048 4.4351C6.65242 5.56552 4.77516 7.42523 3.60871 10.0143C4.52 11.3999 5.13968 12.3298 5.46774 12.8038C5.75936 13.2414 6.08742 13.6243 6.45194 13.9525L6.50661 14.0072C7.05339 14.4812 7.63661 14.8823 8.25629 15.2105C8.91242 15.5387 9.80548 16.0128 10.9355 16.6327C11.5187 16.9608 11.8103 17.4714 11.8103 18.1642V19.9145C11.8103 20.3886 11.9744 20.7897 12.3024 21.1179C12.7034 21.519 13.0223 22.0021 13.2593 22.5673C13.4962 23.1326 13.5965 23.5975 13.56 23.9621V25.439C14.3255 25.439 15.1092 25.3478 15.9111 25.1655L16.8406 22.5947C16.8771 22.5218 16.9682 22.23 17.114 21.7195C17.1505 21.4643 17.2598 21.2637 17.4421 21.1179C17.5515 21.0085 17.7519 20.8079 18.0435 20.5162ZM22.8005 15.484L24.3861 15.9216C24.459 15.3746 24.4955 14.9006 24.4955 14.4995C24.4955 12.7856 24.1127 11.1629 23.3473 9.63137L22.6365 9.95955C22.4177 10.0689 22.2355 10.2148 22.0897 10.3971L21.0508 12.0381C20.905 12.2569 20.8321 12.4939 20.8321 12.7491C20.8321 13.0044 20.905 13.2414 21.0508 13.4602L22.035 14.937C22.2173 15.2288 22.4724 15.4111 22.8005 15.484Z" fill="#FF5900"/>
</g>
<defs>
<clipPath id="clip0_482_4180">
<rect width="27.12" height="29" fill="white" transform="matrix(1 0 0 -1 0 29)"/>
</clipPath>
</defs>
</svg>
