<svg width="36" height="36" viewBox="0 0 36 36" fill="none" xmlns="http://www.w3.org/2000/svg">
<g filter="url(#filter0_i_482_130347)">
<rect x="1.48047" y="1.30078" width="34" height="34" rx="17" stroke="#FFEEE5"/>
<path d="M25.6221 14.9688C25.9502 16.1172 25.9502 18.5781 25.9502 18.5781C25.9502 18.5781 25.9502 21.0117 25.6221 22.1875C25.458 22.8438 24.9385 23.3359 24.3096 23.5C23.1338 23.8008 18.4854 23.8008 18.4854 23.8008C18.4854 23.8008 13.8096 23.8008 12.6338 23.5C12.0049 23.3359 11.4854 22.8438 11.3213 22.1875C10.9932 21.0117 10.9932 18.5781 10.9932 18.5781C10.9932 18.5781 10.9932 16.1172 11.3213 14.9688C11.4854 14.3125 12.0049 13.793 12.6338 13.6289C13.8096 13.3008 18.4854 13.3008 18.4854 13.3008C18.4854 13.3008 23.1338 13.3008 24.3096 13.6289C24.9385 13.793 25.458 14.3125 25.6221 14.9688ZM16.9541 20.793L20.8369 18.5781L16.9541 16.3633V20.793Z" fill="#EBEBEB"/>
</g>
<defs>
<filter id="filter0_i_482_130347" x="0.980469" y="0.800781" width="35" height="35" filterUnits="userSpaceOnUse" color-interpolation-filters="sRGB">
<feFlood flood-opacity="0" result="BackgroundImageFix"/>
<feBlend mode="normal" in="SourceGraphic" in2="BackgroundImageFix" result="shape"/>
<feColorMatrix in="SourceAlpha" type="matrix" values="0 0 0 0 0 0 0 0 0 0 0 0 0 0 0 0 0 0 127 0" result="hardAlpha"/>
<feMorphology radius="2" operator="erode" in="SourceAlpha" result="effect1_innerShadow_482_130347"/>
<feOffset/>
<feComposite in2="hardAlpha" operator="arithmetic" k2="-1" k3="1"/>
<feColorMatrix type="matrix" values="0 0 0 0 0.886275 0 0 0 0 0.886275 0 0 0 0 0.886275 0 0 0 1 0"/>
<feBlend mode="normal" in2="shape" result="effect1_innerShadow_482_130347"/>
</filter>
</defs>
</svg>
